<svg width="643" height="471" viewBox="0 0 643 471" fill="none" xmlns="http://www.w3.org/2000/svg">
<path d="M7.33299 38L0.666992 54.333L70.333 123.333L82.333 124.667L283 80L283.333 94.333L117.333 157.333V169L194 205.667L205 206.333L308.667 94.333L308.333 32.667L267 0L289.667 38H7.33299Z" fill="#F5F5F5"/>
<path d="M635.999 38L642.666 54.333L573 123.333L561 124.667L360.333 80L360 94.333L526 157.333V169L449.333 205.667L438.333 206.333L334.667 94.333L334.999 32.667L376.333 0L353.666 38H635.999Z" fill="#F5F5F5"/>
<path d="M277.333 159L202.666 246.667L204.999 249.667L274.333 198L277 200.667L241 298.334L243 299.667L282 243.667L282.333 420.334L308 470.667V200.667C308 200.667 278.667 193.333 277.333 159Z" fill="#F5F5F5"/>
<path d="M365.332 159L440 246.667L437.666 249.667L368.332 198L365.666 200.667L401.666 298.334L399.666 299.667L360.666 243.667L360.332 420.334L334.666 470.667V200.667C334.666 200.667 364 193.333 365.332 159Z" fill="#F5F5F5"/>
</svg>
