<svg width="60" height="60" viewBox="0 0 60 60" fill="none" xmlns="http://www.w3.org/2000/svg">
<path fill-rule="evenodd" clip-rule="evenodd" d="M27.5829 49.4137C27.6497 48.4882 27.7004 47.5603 27.7907 46.6373C27.8501 46.0285 27.7907 45.4297 27.7412 44.8271C27.6349 43.497 27.9627 42.2078 28.1297 40.9049C28.4278 38.5788 28.7815 36.2614 29.2924 33.9712C29.4149 33.428 29.5794 32.8923 29.7229 32.3528C30.4972 29.4279 32.4455 28.2092 35.361 27.8986C37.3847 27.6833 39.3045 28.1176 41.2367 28.615C45.6972 29.762 49.8955 31.5795 53.8254 33.9192C56.5467 35.5413 58.683 37.8402 59.6862 40.9841C60.3071 42.9291 59.9113 44.7937 59.3237 46.6732C58.7374 48.5439 57.6551 49.9953 55.8887 50.8218C54.4723 51.4849 52.9756 51.9576 51.3848 52.0392C49.5096 52.1358 47.638 52.2966 45.7566 52.3152C45.1072 52.3213 44.4602 52.5255 43.8529 52.8064C43.6723 52.8893 43.6253 53.013 43.5461 53.1726C43.0785 54.1191 42.7396 55.1164 42.2411 56.0555C41.1328 58.1502 39.3305 59.2328 37.1509 59.8119C35.695 60.1979 34.2811 59.9752 32.9514 59.2786C31.3594 58.4459 30.0024 57.3447 28.9943 55.8253C28.4067 54.9407 28.0962 53.9867 27.9886 52.9388C27.8674 51.7646 27.552 50.6114 27.5829 49.4137ZM20.8315 35.3025C17.9691 35.2196 15.2008 34.5626 12.7033 33.2363C10.8021 32.2279 9.10247 30.8025 8.00032 28.8303C7.35338 27.671 7.29771 26.4374 7.53645 25.1952C7.74179 24.1249 8.06341 23.0806 8.47904 22.0549C9.19401 20.2918 10.5361 19.3131 12.2852 19.0038C14.398 18.6301 16.5441 18.6598 18.626 19.3441C19.3471 19.5804 20.0435 19.8934 20.6323 20.3685C21.565 21.1196 22.7117 21.5464 23.5454 22.4583C25.6272 24.7337 26.9533 27.3109 26.9867 30.4524C27.0015 31.9124 26.44 33.1311 25.3786 34.1358C24.6241 34.8509 23.6135 34.8682 22.7006 35.1466C22.0969 35.3297 21.4599 35.279 20.8315 35.3025ZM16.8806 50.6151C14.962 50.4679 13.02 50.3949 11.1744 49.7948C8.54955 48.9423 7.16042 46.9973 6.5778 44.3669C6.26732 42.965 6.57905 41.609 6.90932 40.295C7.19753 39.1492 8.24524 38.491 9.17544 37.813C10.384 36.932 11.7001 36.5905 13.2105 36.5485C14.5699 36.5101 15.9392 36.3963 17.2653 36.6314C18.9463 36.9296 20.6422 37.2908 22.139 38.2101C22.5967 38.4922 23.0494 38.7805 23.517 39.0465C24.7441 39.7444 25.511 40.7787 25.7955 42.162C25.8981 42.6656 25.9625 43.1766 26.0503 43.6826C26.4301 45.8813 25.3044 47.3462 23.7384 48.6738C22.2763 49.9124 20.5643 50.3033 18.7447 50.4766C18.125 50.5359 17.5114 50.6708 16.8806 50.6151ZM36.9654 16.3102C36.9518 17.8828 37.0446 19.4665 36.6067 21.007C35.8422 23.6943 34.1414 24.5641 31.6377 23.755C29.0339 22.9111 26.9372 21.2928 25.3502 19.0137C24.2468 17.4275 23.3586 15.7634 22.7884 13.9062C22.3777 12.5699 22.3604 11.2535 22.6078 9.91348C22.6845 9.49775 22.7525 9.08079 22.8737 8.66506C23.3116 7.18032 24.3495 6.28948 25.5704 5.4506C27.0782 4.41252 28.6653 4.47068 30.3686 4.5944C31.8629 4.70328 32.8388 5.44689 33.8346 6.4429C36.3593 8.96325 37.0866 12.0552 36.9629 15.4676C36.958 15.7485 36.9654 16.0294 36.9654 16.3102ZM52.0343 25.0405C49.4514 25.0751 46.9837 24.4862 44.5691 23.6349C42.9647 23.0695 41.9158 21.8644 41.4383 20.3153C40.8247 18.3233 40.1877 16.3053 40.2026 14.1809C40.2137 12.7122 40.3832 11.2559 40.5897 9.79965C40.8396 8.03652 42.5516 7.09248 43.8838 7.017C46.1314 6.88956 47.9337 7.87939 49.5504 9.39011C51.7497 11.4428 53.1797 14.0002 54.3511 16.6888C55.2949 18.8566 55.5782 21.1765 54.9077 23.5149C54.6406 24.4441 53.7722 25.0356 52.8111 25.0405C52.5525 25.0417 52.294 25.0417 52.0343 25.0405ZM21.5749 0.00161001C22.5039 0.119152 23.7508 0.130287 24.6983 1.08423C25.344 1.73381 25.3873 2.3475 24.8653 3.16534C24.4719 3.78027 23.8856 4.20095 23.251 4.52883C22.1909 5.07571 21.4438 4.88269 20.782 3.83966C20.2961 3.07217 19.9727 2.2131 19.832 1.3156C19.6687 0.257728 20.0052 -0.0243729 21.5749 0.00161001ZM3.51875 17.4164C4.64563 17.3384 5.81458 17.8333 6.84869 18.8108C7.37441 19.3057 7.47831 19.8414 7.31256 20.4316C7.1233 21.1134 6.67304 21.664 6.01126 21.9621C5.36555 22.2529 4.7916 22.243 4.18054 21.706C3.26146 20.8981 2.34981 20.1272 2.08262 18.859C1.85873 17.795 2.21621 17.3483 3.51875 17.4164ZM5.16518 43.6319C5.16023 43.6814 5.16394 43.9239 5.10704 44.1503C4.87696 45.0461 4.38339 45.3369 3.52369 45.0078C2.37207 44.5673 1.27365 44.0093 0.366943 43.1494C-0.178564 42.6334 -0.115477 42.2697 0.553728 41.901C1.33921 41.4679 2.19766 41.2427 3.07715 41.1487C4.27826 41.0225 5.16641 42.0259 5.16518 43.6319ZM39.072 3.30268C39.119 2.70384 39.2179 2.10747 39.8315 1.83155C40.3782 1.58657 40.894 1.79938 41.3381 2.13469C42.0457 2.67043 42.7235 3.2371 43.0352 4.11929C43.2715 4.78866 43.1057 5.31203 42.5058 5.66342C42.0382 5.93686 41.5484 6.14596 41.014 6.26474C40.205 6.44538 39.9651 6.35629 39.6274 5.62011C39.2884 4.88516 39.1437 4.10197 39.072 3.30268Z" fill="#EED12F"/>
</svg>
