<svg width="142" height="142" viewBox="0 0 142 142" fill="none" xmlns="http://www.w3.org/2000/svg">
<path fill-rule="evenodd" clip-rule="evenodd" d="M65.0582 116.52C65.2157 114.338 65.3353 112.15 65.5483 109.973C65.6884 108.538 65.5483 107.126 65.4316 105.705C65.1807 102.569 65.9539 99.5284 66.3477 96.4562C67.0509 90.9711 67.8853 85.5065 69.0902 80.1061C69.3791 78.8253 69.7671 77.5619 70.1056 76.2899C71.932 69.3927 76.5272 66.5189 83.4039 65.7866C88.1771 65.2789 92.7052 66.303 97.2625 67.4758C107.783 70.1804 117.686 74.4664 126.955 79.9835C133.373 83.8085 138.412 89.2293 140.778 96.6429C142.243 101.229 141.309 105.626 139.923 110.058C138.54 114.469 135.988 117.892 131.821 119.841C128.481 121.404 124.95 122.519 121.198 122.712C116.775 122.939 112.361 123.318 107.923 123.362C106.392 123.377 104.866 123.858 103.433 124.52C103.007 124.716 102.896 125.008 102.71 125.384C101.607 127.616 100.807 129.968 99.6315 132.182C97.0174 137.121 92.7665 139.674 87.6257 141.04C84.1917 141.95 80.8569 141.425 77.7205 139.782C73.9655 137.819 70.7649 135.222 68.3871 131.639C67.0013 129.553 66.2689 127.304 66.0151 124.833C65.7292 122.064 64.9852 119.345 65.0582 116.52ZM49.134 83.2454C42.3827 83.0499 35.8531 81.5007 29.9625 78.373C25.4782 75.9952 21.4694 72.6341 18.8699 67.9835C17.344 65.2497 17.2127 62.3409 17.7758 59.4116C18.2601 56.8879 19.0187 54.4255 19.999 52.0068C21.6854 47.8493 24.8509 45.5414 28.9764 44.812C33.9596 43.9309 39.0216 44.001 43.9319 45.6144C45.6329 46.1716 47.2755 46.9098 48.6643 48.0301C50.8641 49.8011 53.5687 50.8077 55.5352 52.9579C60.4454 58.3234 63.5731 64.4007 63.6519 71.8085C63.6869 75.2512 62.3623 78.125 59.859 80.4941C58.0793 82.1805 55.6956 82.2213 53.5424 82.8778C52.1187 83.3096 50.6161 83.19 49.134 83.2454ZM39.8152 119.353C35.29 119.006 30.7095 118.834 26.3564 117.419C20.1653 115.409 16.8888 110.822 15.5147 104.62C14.7824 101.314 15.5176 98.1163 16.2966 95.0178C16.9764 92.3162 19.4475 90.764 21.6416 89.1652C24.492 87.0878 27.5964 86.2826 31.1588 86.1834C34.3652 86.0929 37.5949 85.8245 40.7226 86.3789C44.6876 87.082 48.6876 87.9339 52.2179 90.1017C53.2974 90.7669 54.3652 91.4467 55.4681 92.074C58.3623 93.7195 60.1712 96.1586 60.8422 99.4205C61.0844 100.608 61.2361 101.813 61.4433 103.006C62.339 108.191 59.684 111.645 55.9903 114.776C52.5417 117.696 48.5038 118.618 44.212 119.027C42.7503 119.167 41.3032 119.485 39.8152 119.353ZM87.188 38.4605C87.1559 42.1687 87.3748 45.9032 86.3419 49.5356C84.5389 55.8726 80.5272 57.9237 74.622 56.0156C68.4805 54.0258 63.5352 50.2096 59.7919 44.8354C57.1894 41.095 55.0946 37.1709 53.7496 32.7916C52.781 29.6406 52.7401 26.5363 53.3236 23.3766C53.5045 22.3963 53.665 21.413 53.9509 20.4327C54.9837 16.9316 57.4316 14.831 60.3113 12.8528C63.8678 10.405 67.611 10.5421 71.6286 10.8339C75.153 11.0906 77.455 12.8441 79.8036 15.1927C85.7584 21.1359 87.4739 28.4269 87.1822 36.4736C87.1705 37.1359 87.188 37.7982 87.188 38.4605ZM122.73 59.0469C116.638 59.1286 110.818 57.7399 105.122 55.7326C101.338 54.3992 98.8642 51.5575 97.738 47.9047C96.2909 43.2074 94.7883 38.4488 94.8234 33.4393C94.8496 29.9761 95.2493 26.5421 95.7366 23.1081C96.3259 18.9506 100.364 16.7245 103.506 16.5465C108.807 16.246 113.058 18.5801 116.872 22.1424C122.059 26.9827 125.432 33.0133 128.195 39.3533C130.421 44.4649 131.089 49.9353 129.508 55.4496C128.877 57.6407 126.829 59.0353 124.562 59.0469C123.952 59.0499 123.343 59.0499 122.73 59.0469ZM50.8874 0.0037965C53.0785 0.280967 56.0195 0.307225 58.2544 2.55668C59.7773 4.08841 59.8794 5.53554 58.6482 7.46406C57.7204 8.9141 56.3375 9.90608 54.8408 10.6792C52.3404 11.9688 50.5782 11.5137 49.0173 9.05414C47.8711 7.24436 47.1085 5.21862 46.7766 3.10227C46.3914 0.607737 47.185 -0.0574728 50.8874 0.0037965ZM8.29946 41.0688C10.9574 40.885 13.7145 42.052 16.1536 44.3569C17.3936 45.5239 17.6386 46.7873 17.2477 48.1789C16.8013 49.7865 15.7393 51.0849 14.1784 51.788C12.6554 52.4736 11.3017 52.4503 9.86038 51.1841C7.69261 49.2789 5.54235 47.4612 4.91216 44.4707C4.38407 41.9616 5.22724 40.9083 8.29946 41.0688ZM12.1828 102.887C12.1711 103.003 12.1799 103.575 12.0457 104.109C11.503 106.221 10.3388 106.907 8.31112 106.131C5.59485 105.092 3.00408 103.776 0.865486 101.749C-0.421169 100.532 -0.272369 99.6743 1.30604 98.8049C3.15871 97.7837 5.18349 97.2527 7.2579 97.031C10.0909 96.7334 12.1857 99.0995 12.1828 102.887ZM92.1567 7.78791C92.2675 6.3758 92.501 4.96952 93.9481 4.3189C95.2376 3.74122 96.4543 4.24305 97.5017 5.03371C99.1706 6.29703 100.769 7.63328 101.505 9.71352C102.062 11.2919 101.671 12.5261 100.256 13.3547C99.1531 13.9994 97.9977 14.4925 96.7373 14.7726C94.8292 15.1986 94.2632 14.9885 93.4667 13.2525C92.6673 11.5195 92.3259 9.67267 92.1567 7.78791Z" fill="#DC1A34"/>
</svg>
