<svg xmlns="http://www.w3.org/2000/svg" height="800" width="1200" viewBox="-47.4576 -13.23845 411.2992 79.4307"><g clip-rule="evenodd" fill-rule="evenodd"><path d="M211.121 7.3756c-.654-.988-.972-1.99-1.025-3.04-.077-1.51.677-2.662 2.194-2.893.614-.093 1.216.148 1.723.486.774.517 1.429 1.169 1.916 1.978.178.294.423.539.643.801.853 1.016 1.962 1.65 3.082 2.296.405.234.781.383 1.261.382 6.52-.001 13.039.054 19.559.019 4.422-.024 8.844-.025 13.265-.024 20.61.007 41.22.026 61.829.042.804.001.804.002.804.82 0 12.132-.003 24.265.012 36.397 0 .479-.124.585-.592.585-28.95-.012-57.899-.01-86.849-.016-.446 0-.84.095-1.253.274-1.527.666-3.131 1.05-4.802 1.11-1.186.043-2.373.081-3.559.108-.422.01-.736.151-.909.559-.163.386-.374.752-.515 1.145-.847 2.357-2.651 3.559-4.946 4.257-2.449.746-4.493.004-6.35-1.546-.532-.443-1.206-.609-1.755-1.014-1.603-1.18-2.963-2.548-3.521-4.529-.087-.311-.209-.355-.491-.367-1.384-.055-2.754.115-4.129.214-1.236.089-2.478.15-3.699-.179-.181-.049-.382-.026-.574-.026-63.878-.001-127.756-.001-191.634-.001-.795 0-.795.001-.795-.774 0-12.149.003-24.299-.011-36.449 0-.482.111-.62.596-.567.5.054 1.012-.006 1.519-.006h194.564c.157 0 .316.011.472-.008.27-.033.287-.297.346-.474.073-.216-.179-.161-.278-.186-.815-.196-1.334-.8-1.722-1.441-.482-.798-.809-1.693-.966-2.634-.23-1.382.555-2.515 1.937-2.643 1.287-.119 2.541.094 3.698.711.69.367 1.19.923 1.414 1.674.234.789.919 1.013 1.549 1.169.991.245 2.048.144 3.035.496.677.242 1.227.643 1.701 1.171.559.622 1.209 1.163 1.643 1.895.093.157.243.236.44.231.358-.01.721-.003 1.173-.003zm18.384 37.006h.543c28.338 0 56.677-.001 85.016.01.404 0 .476-.11.476-.489-.011-11.713-.011-23.426-.001-35.139 0-.365-.05-.498-.468-.498-31.118.012-62.236.011-93.354.015-.125 0-.278-.071-.39.09.888.891 1.597 1.936 2.457 2.846.964 1.021 1.843 2.103 2.54 3.32 1.411 2.467 2.004 5.114 1.615 7.945-.175 1.271-1.295 2.251-2.543 2.408-.88.111-1.736-.007-2.598-.116-1.712-.218-3.391-.57-4.97-1.302-.75-.348-1.326-.961-2.004-1.369-.95-.572-1.991-.981-2.736-1.932-.259.966-.511 1.844-.965 2.644.729.201 1.417.388 2.103.581 3.484.982 6.797 2.363 9.875 4.28 1.503.937 2.902 2.019 3.929 3.478.744 1.056 1.843 1.785 2.568 2.895v-.603c0-6.871.006-13.741-.012-20.611-.001-.541.161-.67.683-.668 5.07.02 10.139.021 15.209.005 1.387-.004 2.752.171 4.067.561 4.16 1.231 5.907 3.756 6.141 7.544.178 2.883.086 5.767.105 8.65.009 1.346-.06 2.687-.196 4.027-.329 3.253-2.161 5.304-5.117 6.459-1.918.749-3.943.865-5.967.874-4.51.02-9.019.006-13.529-.021-.445-.003-.568.145-.679.542-.354 1.254-.634 2.555-1.798 3.574zm-39.619 0c-.369-.344-.758-.604-1.087-.939-.514-.525-1.139-.749-1.87-.749-61.239.003-122.477.003-183.715.003-.677 0-.677 0-.677-.695v-31.361c0-.676 0-.676.697-.676 64.088 0 128.176.001 192.264-.003.38 0 .856.157 1.113-.077.2-.183.141-.652.193-.994.03-.196.154-.379.091-.613h-.529c-64.979 0-129.959.001-194.938-.011-.475 0-.59.114-.59.589.015 11.626.016 23.251-.002 34.877 0 .552.146.663.677.663 62.62-.014 125.239-.013 187.858-.013.171-.001.343-.001.515-.001zM24.795 30.2806c-.1-.269-.167-.446-.232-.625-1.998-5.501-3.998-11.002-5.985-16.507-.116-.321-.243-.455-.616-.453-4.073.018-8.146.017-12.219.002-.386-.002-.451.123-.45.473.009 8.74.009 17.48-.001 26.221 0 .366.097.465.464.462 2.377-.017 4.755-.021 7.132.002.441.004.58-.075.578-.556-.021-5.297-.014-10.594-.01-15.891 0-.173-.063-.367.074-.53.173.083.179.239.223.36 1.958 5.385 3.917 10.77 5.857 16.161.131.364.308.454.673.453 4.09-.013 8.181-.014 12.271 0 .388.001.525-.066.525-.5-.015-8.722-.014-17.445-.002-26.168 0-.38-.072-.494-.478-.49-2.377.023-4.755.027-7.132-.001-.472-.006-.57.117-.569.573.017 5.437.012 10.873.008 16.31.001.198.058.408-.111.704zm82.355-6.01c-2.133 0-4.266.01-6.398-.008-.364-.003-.471.09-.466.461.022 1.45.026 2.902-.002 4.353-.008.416.112.529.518.528 1.327-.003 2.655.043 3.982.044.334.001.407.121.408.429.002.563-.049 1.116-.188 1.661-.23.903-1.023 1.511-1.955 1.504-.349-.002-.699.006-1.048.006-1.101-.001-2.202.017-3.302-.011-1.14-.028-1.948-.911-1.973-2.338-.052-2.971-.06-5.944.002-8.914.031-1.44.649-2.401 2.477-2.357 1.292.031 2.585-.002 3.878-.003.901-.001 1.687.593 1.906 1.49.078.319.209.401.524.399 2.465-.014 4.93-.008 7.395-.008.993 0 1.013-.001.951-.996-.132-2.116-.687-4.066-2.338-5.54-1.868-1.667-4.119-2.38-6.566-2.459-2.253-.071-4.51-.006-6.764-.03-1.705-.018-3.38.134-4.979.764-1.963.773-3.584 1.951-4.466 3.949-.542 1.228-.711 2.528-.751 3.859-.125 4.122-.252 8.246.136 12.358.146 1.552.729 2.967 1.845 4.112 1.816 1.864 4.113 2.729 6.633 2.81 3.157.102 6.328.215 9.481-.082 1.965-.185 3.757-.918 5.277-2.209 1.748-1.483 2.354-3.484 2.497-5.682.164-2.532.089-5.067.12-7.602.004-.383-.084-.503-.488-.499-2.115.022-4.23.011-6.346.011zm8.109 1.904c0 4.387.005 8.774-.009 13.162-.001.4.087.523.509.52 2.272-.023 4.545-.021 6.817-.002.401.004.526-.085.523-.508-.019-3.129-.002-6.258-.02-9.387-.002-.447.067-.622.58-.615 2.569.03 5.139.021 7.709.006.381-.002.53.057.526.495-.022 3.181-.005 6.362-.02 9.544-.001.367.095.467.464.464 2.307-.017 4.615-.02 6.922.002.402.004.482-.105.481-.489-.012-8.775-.012-17.551 0-26.326 0-.377-.104-.451-.463-.449-2.308.018-4.615.021-6.922-.001-.405-.004-.485.113-.483.495.016 3.094.002 6.188.017 9.282.002.389-.068.526-.499.522-2.57-.023-5.14-.022-7.709-.002-.456.004-.613-.083-.608-.584.027-3.076.005-6.153.023-9.229.002-.394-.091-.488-.486-.484-2.255.021-4.51.023-6.765 0-.456-.005-.604.084-.602.579.025 4.334.015 8.669.015 13.005zm-53.346-3.409v8.128c0 .838-.018 1.676.102 2.511.241 1.683.808 3.21 2.064 4.411 1.889 1.806 4.214 2.554 6.758 2.647 1.973.073 3.95.011 5.925.019 1.445.007 2.849-.226 4.195-.743 2.589-.994 4.408-2.702 5.009-5.511.287-1.341.332-2.708.339-4.065.032-5.681.01-11.361.022-17.042.001-.361-.119-.424-.448-.422-2.412.013-4.824.019-7.236-.005-.425-.004-.502.125-.501.519.012 5.855.006 11.711.012 17.566 0 .459-.065.904-.176 1.345-.245.972-1.021 1.546-2.026 1.538-1.292-.01-2.585-.01-3.878 0-1.006.008-1.787-.564-2.031-1.532-.111-.44-.175-.886-.174-1.345.006-5.855 0-11.711.012-17.566 0-.386-.063-.529-.499-.524-2.324.024-4.649.025-6.974-.001-.44-.005-.504.143-.502.529.013 3.18.007 6.362.007 9.543zm-3.988 17.079h3.67c.557 0 .622-.081.505-.631-.018-.084-.057-.164-.082-.247-2.549-8.606-5.099-17.212-7.635-25.821-.104-.354-.249-.449-.608-.447-3.705.015-7.409.019-11.113-.004-.44-.003-.581.141-.698.536-2.06 7.003-4.137 14-6.21 20.999-.486 1.642-.978 3.281-1.453 4.926-.178.614-.112.689.466.689 2.446 0 4.893-.009 7.339.011.365.002.51-.098.596-.454.302-1.271.649-2.53.964-3.798.077-.31.19-.454.554-.452 2.656.019 5.312.017 7.968.001.31-.001.425.108.495.383.32 1.268.668 2.527.974 3.798.091.382.229.535.65.523 1.206-.033 2.412-.012 3.618-.012zm128.94-22.18c-.224-1.208-1.12-1.802-2.001-2.389-.729-.486-1.605-.393-2.424-.499-1.01-.13-1.776.741-1.65 1.751.126 1.008.597 1.825 1.318 2.479.495.449.973 1.007 1.668 1.126.45.077.751.266 1.009.605.083.109.199.197.312.278.184.132.254.256.199.517-.389 1.803.022 3.392 1.256 4.793 1.102 1.249 2.397 2.226 3.847 3.021.388.212.783.419 1.07.767-.096.145-.213.099-.306.095-1.575-.064-3.024.241-4.312 1.239-1.093.848-2.166 1.664-2.246 3.203-.005.097-.063.19-.104.304-.261-.108-.393-.321-.554-.499-.353-.386-.812-.586-1.31-.541-.957.087-1.889.313-2.731.804-.915.533-1.026 1.347-.289 2.104.416.427.9.769 1.426 1.052.644.347 1.255.735 1.849 1.173.863.635 1.752 1.276 2.861 1.441.166.024.231.143.32.244.644.731 1.396 1.307 2.329 1.621.267.091.494.229.688.447.583.651 1.326 1.056 2.145 1.335 1.93.657 3.923.797 5.933.626 1.388-.118 2.754-.382 3.901-1.287.151-.119.261-.335.518-.328.055.877.202 1.736.482 2.552.587 1.706 1.847 2.877 3.258 3.915.509.374 1.148.492 1.633.915 1.669 1.453 3.505 2.191 5.771 1.515 2.145-.641 3.81-1.761 4.605-3.943.172-.47.393-.919.631-1.361.243-.452.627-.646 1.097-.676.887-.057 1.778-.117 2.666-.104 1.417.022 2.8-.144 4.164-.53.917-.261 1.81-.593 2.615-1.083.618-.377 1.14-.909 1.44-1.607.567-1.32 1.021-2.699 1.214-4.105.232-1.69-.591-3.153-1.475-4.543-.483-.76-1.27-1.262-1.767-1.989-1.317-1.924-3.11-3.303-5.087-4.422-3.654-2.067-7.546-3.55-11.68-4.356-.2-.038-.43.017-.623-.202 1.024-.35 1.348-1.219 1.633-2.136.26-.838.411-1.697.526-2.561.152.018.191.099.224.177.574 1.369 1.612 2.234 2.971 2.758.192.074.399.133.534.309.565.736 1.381 1.084 2.204 1.42 1.563.637 3.21.926 4.87 1.135.686.087 1.387.159 2.078-.009 1.118-.271 1.815-1.299 1.847-2.698.066-2.939-.766-5.587-2.515-7.96-.676-.918-1.496-1.705-2.211-2.585-1.101-1.353-2.182-2.777-3.736-3.604-1.078-.572-1.956-1.302-2.794-2.144-.244-.244-.509-.449-.681-.762-.427-.78-1.037-1.404-1.748-1.926-1.196-.876-2.541-.37-2.923 1.054-.14.52-.07 1.021.062 1.496.293 1.06.504 2.223 2.001 2.42-.963.891-.861 2.098-1.148 3.228-.081-.07-.157-.114-.2-.18-.493-.767-1.104-1.436-1.729-2.095-.876-.925-1.61-1.973-2.524-2.867-.649-.635-1.396-.989-2.298-1.116-1.125-.157-2.35.031-3.294-.844-.036-.033-.094-.049-.144-.06-.294-.067-.451-.184-.472-.549-.021-.368-.205-.726-.462-1.03-.84-.995-3.281-1.675-4.475-1.23-.553.205-1.082.891-.993 1.466.217 1.412.637 2.748 1.832 3.682.285.223.624.294.984.271.143-.009.314-.233.42.073.08.228.164.394-.014.656-.959 1.413-1.277 3.025-1.058 4.675.271 2.051 1.229 3.852 2.395 5.548.891 1.297 1.948 2.413 3.275 3.261.439.28.948.465 1.352.784 1.089.861 2.239 1.603 3.583 2.062-.065.041-.092.069-.124.075-1.447.271-2.703.869-3.628 2.066-.24.312-.291.007-.348-.159-.372-1.082-.902-2.075-1.621-2.969-.354-.439-.914-.704-1.189-1.166-.714-1.2-1.698-2.111-2.784-2.943-.858-.658-1.745-1.266-2.757-1.67-1.65-.659-3.373-.631-5.096-.506-.781.057-1.528.286-2.214.707-.442.271-.81.64-1.277.988zm-34.37-5.065c-3.566 0-7.132.008-10.698-.01-.401-.002-.49.106-.485.493.021 1.783.023 3.566-.001 5.349-.006.424.088.56.535.554 2.01-.025 4.021.003 6.03-.022.444-.006.574.082.572.557-.019 6.607-.009 13.215-.022 19.822-.001.412.103.517.514.514 2.325-.021 4.65-.024 6.975.002.478.005.6-.115.599-.597-.017-6.572-.008-13.145-.021-19.717-.001-.422.045-.594.545-.585 2.044.036 4.09.006 6.135.024.351.003.441-.095.439-.435-.015-1.818-.022-3.637.004-5.454.006-.43-.133-.505-.528-.504-3.532.016-7.063.009-10.593.009zm27.559 4.192c-.726 1.568-1.446 3.139-2.184 4.702-.072.152-.04.41-.305.433-.307.025-.303-.254-.378-.423-1.289-2.859-2.725-5.653-3.899-8.565-.083-.206-.164-.348-.44-.346-2.586.012-5.173.012-7.76.001-.261-.001-.304.083-.323.324-.055.667.148 1.224.466 1.817 2.697 5.044 5.352 10.11 8.026 15.166.152.288.214.574.213.898-.008 2.849.004 5.698-.016 8.547-.003.422.121.511.523.508 2.394-.02 4.789-.007 7.183-.016.147 0 .409.127.43-.133.021-.254.154-.569-.145-.77-.302-.203-.611-.396-.923-.585-.554-.335-1.09-.693-1.524-1.181-.775-.869-.726-2.075.2-2.762.637-.472 1.333-.895 2.101-1.137.269-.084.316-.204.313-.439-.008-.576.021-1.154-.01-1.729-.027-.508.106-.944.35-1.389.869-1.588 1.705-3.192 2.556-4.79.133-.25.199-.479.137-.787-.134-.664-.224-1.339-.091-2.027.129-.675-.215-1.152-.906-1.314-.259-.061-.505-.141-.722-.288-1.343-.91-2.491-1.972-2.872-3.715zm59.131 9.428c0 2.098.013 4.194-.011 6.291-.005.424.081.558.532.551 2.061-.032 4.122-.023 6.184-.029.888-.002 1.661-.578 1.901-1.429.124-.438.199-.881.198-1.34-.006-2.691-.007-5.382.001-8.073.001-.425-.064-.835-.165-1.24-.231-.941-1.003-1.537-1.977-1.54-2.062-.006-4.124.004-6.185-.021-.392-.004-.494.092-.489.487.022 2.114.011 4.229.011 6.343zm-57.902-11.999c1.386-.23 2.702-.11 3.934.484.742.357 1.331.955 1.828 1.614.143.189.201.134.347.039.6-.39 1.227-.728 1.939-.871.184-.037.29-.153.389-.313.411-.664.681-1.349.603-2.162-.033-.342-.11-.423-.443-.42-2.13.015-4.26.007-6.39.007-1.665 0-1.665 0-2.208 1.591-.006.014.001.031.001.031zm22.925 10.161c.46-.623 1.125-.908 1.718-1.246-1.307-1.021-2.753-1.819-4.16-2.715-.074.261-.071.452.138.629 1.045.887 1.741 2.022 2.304 3.332zm7.136-15.218c.078-.315.145-.586.221-.895-.343.038-.643-.059-.946.069.244.277.459.522.725.826z" fill="#FFF"/><path d="M229.505 44.3816c1.164-1.019 1.444-2.32 1.796-3.574.111-.397.234-.545.679-.542 4.51.026 9.019.04 13.529.021 2.024-.009 4.049-.125 5.967-.874 2.956-1.155 4.788-3.206 5.117-6.459.136-1.341.205-2.682.196-4.027-.019-2.884.073-5.768-.105-8.65-.234-3.788-1.981-6.313-6.141-7.544-1.315-.39-2.68-.564-4.067-.561-5.07.017-10.139.015-15.209-.005-.522-.002-.684.127-.683.668.018 6.87.012 13.74.012 20.611v.603c-.725-1.109-1.824-1.839-2.568-2.895-1.027-1.459-2.425-2.541-3.929-3.478-3.078-1.917-6.391-3.298-9.875-4.28-.686-.193-1.374-.38-2.103-.581.454-.8.707-1.678.965-2.644.746.95 1.787 1.359 2.736 1.932.678.408 1.254 1.021 2.004 1.369 1.58.731 3.258 1.084 4.97 1.302.862.109 1.717.228 2.598.116 1.248-.157 2.368-1.138 2.543-2.408.389-2.831-.204-5.479-1.615-7.945-.696-1.218-1.575-2.299-2.54-3.32-.86-.91-1.569-1.955-2.457-2.846.111-.161.264-.09.39-.09 31.118-.004 62.236-.003 93.354-.015.418 0 .469.133.468.498-.01 11.713-.01 23.426.001 35.139 0 .379-.071.489-.476.489-28.338-.011-56.677-.01-85.016-.01h-.541zm74.205-20.322c-2.132 0-4.265.01-6.396-.009-.375-.003-.463.107-.458.468.02 1.45.026 2.901-.003 4.352-.008.422.122.525.521.524 1.327-.003 2.654.042 3.981.042.335 0 .406.121.408.429.004.581-.05 1.151-.203 1.711-.232.85-1.011 1.452-1.888 1.455-1.45.004-2.899.002-4.349-.001-.246 0-.476-.072-.708-.158-1.024-.379-1.302-1.26-1.315-2.186-.046-2.97-.065-5.942.002-8.912.032-1.424.609-2.409 2.528-2.355 1.274.035 2.55-.001 3.825-.002.9-.001 1.677.586 1.905 1.488.08.316.208.401.525.4 2.43-.015 4.858-.009 7.288-.009 1.104 0 1.124-.001 1.05-1.1-.135-2.021-.67-3.891-2.212-5.327-1.878-1.75-4.174-2.486-6.677-2.57-2.252-.075-4.508-.012-6.763-.03-1.472-.012-2.927.08-4.336.54-2.256.735-4.131 1.944-5.132 4.207-.535 1.21-.697 2.495-.737 3.809-.124 4.104-.249 8.208.129 12.304.152 1.65.77 3.135 1.98 4.319 1.799 1.76 4.035 2.596 6.479 2.674 3.157.102 6.326.209 9.48-.079 1.948-.178 3.725-.898 5.243-2.159 1.762-1.463 2.401-3.451 2.55-5.652.174-2.566.099-5.136.131-7.704.005-.412-.129-.48-.505-.477-2.113.017-4.228.008-6.343.008zm-46.075 2.117c.006 2.306-.063 4.614.213 6.91.2 1.666.778 3.174 2.009 4.367 1.89 1.835 4.229 2.604 6.793 2.691 2.27.077 4.543.01 6.814.032 1.688.016 3.346-.142 4.929-.761 2.56-1.002 4.377-2.688 4.977-5.478.195-.908.259-1.829.283-2.755.103-3.947.222-7.897-.147-11.837-.161-1.71-.812-3.243-2.092-4.447-1.885-1.773-4.194-2.517-6.716-2.601-2.252-.075-4.508-.013-6.762-.029-1.366-.011-2.723.052-4.037.447-4.127 1.242-5.913 3.731-6.157 7.538-.125 1.974-.113 3.948-.107 5.923zm-67.749 18.205h-.516c-62.619 0-125.238-.001-187.858.013-.531 0-.677-.111-.677-.663.019-11.626.017-23.251.003-34.877 0-.475.115-.589.59-.589 64.979.012 129.959.011 194.938.011h.529c.063.234-.062.417-.091.613-.053.342.007.812-.193.994-.257.234-.733.077-1.113.077-64.087.004-128.176.003-192.264.003-.697 0-.697 0-.697.676v31.361c0 .695 0 .695.677.695 61.238 0 122.477 0 183.715-.003.731 0 1.356.224 1.87.749.329.336.719.596 1.087.94z" fill="#231F20"/><path d="M24.795 30.2806c.169-.296.111-.506.111-.704.004-5.437.009-10.873-.008-16.31-.001-.456.097-.579.569-.573 2.377.028 4.754.024 7.132.001.406-.004.479.11.478.49-.011 8.723-.012 17.446.002 26.168 0 .434-.137.501-.525.5-4.09-.014-8.181-.013-12.271 0-.365.001-.542-.089-.673-.453-1.94-5.392-3.898-10.776-5.857-16.161-.044-.121-.05-.277-.223-.36-.137.163-.074.357-.074.53-.004 5.297-.011 10.594.01 15.891.002.48-.136.56-.578.556-2.377-.022-4.754-.019-7.132-.002-.367.003-.465-.096-.464-.462.01-8.74.01-17.48.001-26.221 0-.35.064-.475.45-.473 4.073.015 8.146.016 12.219-.002.373-.002.5.132.616.453 1.987 5.505 3.987 11.006 5.985 16.507.065.179.132.357.232.625zm82.355-6.01c2.115 0 4.23.012 6.346-.01.404-.004.492.116.488.499-.031 2.534.044 5.069-.12 7.602-.143 2.197-.749 4.198-2.497 5.682-1.52 1.291-3.312 2.024-5.277 2.209-3.153.297-6.325.184-9.481.082-2.521-.081-4.817-.945-6.633-2.81-1.115-1.146-1.698-2.561-1.845-4.112-.388-4.112-.261-8.236-.136-12.358.04-1.331.209-2.632.751-3.859.882-1.998 2.503-3.176 4.466-3.949 1.598-.63 3.273-.781 4.979-.764 2.254.024 4.511-.041 6.764.03 2.448.079 4.698.792 6.566 2.459 1.651 1.474 2.206 3.424 2.338 5.54.062.995.042.996-.951.996-2.465 0-4.93-.006-7.395.008-.315.002-.446-.08-.524-.399-.219-.897-1.005-1.491-1.906-1.49-1.293.001-2.586.034-3.878.003-1.828-.044-2.446.917-2.477 2.357-.063 2.97-.054 5.943-.002 8.914.025 1.427.833 2.31 1.973 2.338 1.1.027 2.201.01 3.302.011.349 0 .699-.008 1.048-.006.932.007 1.725-.601 1.955-1.504.139-.545.19-1.098.188-1.661-.001-.308-.074-.428-.408-.429-1.327-.001-2.655-.047-3.982-.044-.406.001-.526-.112-.518-.528.028-1.45.024-2.902.002-4.353-.005-.371.102-.464.466-.461 2.133.016 4.266.007 6.398.007zm8.109 1.904c0-4.336.01-8.671-.013-13.006-.002-.495.146-.584.602-.579 2.254.023 4.51.021 6.765 0 .395-.004.488.091.486.484-.018 3.076.003 6.153-.023 9.229-.004.501.152.588.608.584 2.569-.021 5.139-.021 7.709.002.431.004.5-.134.499-.522-.015-3.094-.001-6.188-.017-9.282-.002-.382.079-.499.483-.495 2.308.021 4.615.019 6.922.001.358-.002.463.072.463.449-.012 8.775-.012 17.551 0 26.326 0 .384-.08.493-.481.489-2.307-.021-4.615-.019-6.922-.002-.369.003-.466-.097-.464-.464.015-3.182-.002-6.363.02-9.544.003-.438-.146-.497-.526-.495-2.57.016-5.14.024-7.709-.006-.513-.007-.583.168-.58.615.018 3.129 0 6.258.02 9.387.003.423-.122.512-.523.508-2.272-.02-4.545-.021-6.817.002-.422.004-.511-.119-.509-.52.013-4.387.007-8.774.007-13.161zm-53.346-3.409c0-3.181.006-6.362-.008-9.544-.002-.387.062-.534.502-.529 2.324.026 4.649.025 6.974.001.436-.005.499.139.499.524-.011 5.855-.006 11.711-.012 17.566 0 .459.063.904.174 1.345.244.968 1.025 1.54 2.031 1.532 1.292-.01 2.585-.01 3.878 0 1.005.008 1.782-.566 2.026-1.538.111-.44.177-.886.176-1.345-.006-5.855 0-11.711-.012-17.566-.001-.394.076-.522.501-.519 2.412.023 4.824.018 7.236.005.329-.002.449.061.448.422-.012 5.681.01 11.361-.022 17.042-.007 1.357-.052 2.725-.339 4.065-.601 2.809-2.419 4.517-5.009 5.511-1.347.518-2.75.75-4.195.743-1.975-.008-3.952.055-5.925-.019-2.544-.094-4.869-.842-6.758-2.647-1.256-1.201-1.823-2.729-2.064-4.411-.119-.835-.101-1.673-.102-2.511.001-2.708.001-5.418.001-8.127zm-3.988 17.079c-1.206 0-2.412-.021-3.617.012-.421.012-.559-.142-.65-.523-.306-1.271-.654-2.53-.974-3.798-.07-.274-.185-.384-.495-.383-2.656.016-5.312.018-7.968-.001-.364-.002-.477.143-.554.452-.315 1.268-.662 2.527-.964 3.798-.085.356-.231.456-.596.454-2.446-.02-4.893-.011-7.339-.011-.578 0-.644-.075-.466-.689.475-1.645.967-3.284 1.453-4.926 2.073-6.999 4.15-13.996 6.21-20.999.117-.396.258-.539.698-.536 3.704.022 7.409.019 11.113.004.359-.002.503.093.608.447 2.536 8.609 5.086 17.215 7.635 25.821.024.083.063.163.082.247.117.55.051.631-.505.631h-3.671zm-12.541-10.196h5.607c-.865-3.025-1.718-6.017-2.582-9.006-.039-.134.01-.368-.197-.385-.261-.021-.204.25-.244.388-.585 2.007-1.153 4.019-1.727 6.028-.281.986-.567 1.971-.857 2.975zm141.481-11.984c.467-.348.835-.717 1.281-.99.686-.421 1.433-.65 2.214-.707 1.723-.125 3.446-.153 5.096.506 1.012.404 1.899 1.012 2.757 1.67 1.085.832 2.07 1.743 2.784 2.943.275.462.836.727 1.189 1.166.718.894 1.249 1.887 1.621 2.969.057.166.108.471.348.159.925-1.197 2.181-1.795 3.628-2.066.031-.006.058-.034.124-.075-1.344-.459-2.494-1.2-3.583-2.062-.404-.319-.913-.504-1.352-.784-1.327-.848-2.384-1.964-3.275-3.261-1.166-1.696-2.124-3.497-2.395-5.548-.219-1.649.099-3.262 1.058-4.675.178-.263.093-.429.014-.656-.106-.307-.278-.082-.42-.073-.361.022-.699-.049-.984-.271-1.195-.934-1.615-2.27-1.832-3.682-.089-.575.44-1.261.993-1.466 1.194-.444 3.635.235 4.475 1.23.257.305.441.662.462 1.03.021.365.178.481.472.549.05.011.108.026.144.06.945.875 2.17.687 3.294.844.903.127 1.649.481 2.298 1.116.915.895 1.648 1.942 2.524 2.867.624.659 1.236 1.328 1.729 2.095.042.065.119.109.2.18.288-1.13.185-2.337 1.148-3.228-1.497-.197-1.708-1.36-2.001-2.42-.131-.475-.201-.977-.062-1.496.382-1.424 1.727-1.93 2.923-1.054.71.521 1.32 1.146 1.748 1.926.171.313.437.518.681.762.839.842 1.717 1.571 2.794 2.144 1.555.827 2.636 2.252 3.736 3.604.715.88 1.535 1.667 2.211 2.585 1.749 2.373 2.581 5.021 2.515 7.96-.032 1.399-.729 2.427-1.847 2.698-.691.168-1.392.096-2.078.009-1.66-.209-3.308-.498-4.87-1.135-.823-.336-1.639-.684-2.204-1.42-.135-.176-.342-.234-.534-.309-1.359-.523-2.397-1.389-2.971-2.758-.033-.078-.072-.159-.224-.177-.115.863-.267 1.723-.526 2.561-.285.917-.609 1.786-1.633 2.136.193.219.423.164.623.202 4.134.807 8.026 2.289 11.68 4.356 1.977 1.119 3.77 2.498 5.087 4.422.497.728 1.284 1.229 1.767 1.989.884 1.39 1.707 2.853 1.475 4.543-.193 1.406-.647 2.785-1.214 4.105-.3.698-.822 1.23-1.44 1.607-.806.49-1.699.822-2.615 1.083-1.363.387-2.746.553-4.164.53-.888-.014-1.779.047-2.666.104-.47.029-.854.224-1.097.676-.238.442-.459.892-.631 1.361-.795 2.183-2.46 3.303-4.605 3.943-2.266.677-4.102-.062-5.771-1.515-.485-.423-1.125-.541-1.633-.915-1.411-1.038-2.671-2.209-3.258-3.915-.28-.815-.427-1.675-.482-2.552-.257-.007-.367.209-.518.328-1.146.905-2.513 1.169-3.901 1.287-2.01.171-4.003.031-5.933-.626-.819-.279-1.563-.684-2.145-1.335-.194-.218-.421-.356-.688-.447-.934-.314-1.686-.89-2.329-1.621-.089-.102-.154-.22-.32-.244-1.109-.165-1.998-.807-2.861-1.441-.594-.438-1.205-.826-1.849-1.173-.525-.283-1.01-.625-1.426-1.052-.737-.758-.625-1.571.289-2.104.842-.49 1.774-.717 2.731-.804.499-.045.957.155 1.31.541.162.178.293.391.554.499.04-.113.099-.207.104-.304.081-1.539 1.153-2.355 2.246-3.203 1.288-.998 2.737-1.304 4.312-1.239.093.004.21.05.306-.095-.287-.348-.683-.555-1.07-.767-1.449-.795-2.745-1.771-3.847-3.021-1.234-1.401-1.645-2.99-1.256-4.793.056-.261-.015-.385-.199-.517-.113-.081-.229-.169-.312-.278-.257-.34-.559-.528-1.009-.605-.695-.119-1.173-.677-1.668-1.126-.721-.654-1.192-1.472-1.318-2.479-.126-1.01.64-1.881 1.65-1.751.819.106 1.695.013 2.424.499.877.589 1.773 1.183 1.997 2.391zm15.362 23.751c-.026.968.23 1.9.328 2.85.087.847.338 1.618.813 2.333.815 1.228 1.912 2.118 3.199 2.791 1.075.563 2.218.742 3.395.431 1.762-.468 3.219-1.343 4.115-3.036.403-.759.676-1.565 1.055-2.33.064-.129.101-.229.248-.296.491-.228 1.014-.393 1.539-.397 1.521-.015 3.034-.145 4.55-.223 1.286-.066 2.496-.448 3.641-.984 1.429-.668 2.304-1.841 2.777-3.353.476-1.519.795-3.025.293-4.598-.811-2.541-2.538-4.399-4.738-5.71-3.177-1.892-6.571-3.36-10.177-4.287-1.562-.402-3.114-.753-4.75-.579-2.357.251-3.932 1.235-4.558 3.6-.116.436-.249.868-.348 1.308-.413 1.852-.699 3.725-.94 5.604-.135 1.053-.4 2.095-.314 3.17.04.487.087.971.04 1.463-.073.745-.113 1.495-.168 2.243zm-5.458-11.405c.508-.019 1.023.022 1.511-.125.737-.226 1.554-.239 2.165-.817.857-.812 1.312-1.797 1.3-2.977-.026-2.539-1.099-4.622-2.782-6.461-.675-.737-1.602-1.082-2.355-1.689-.475-.384-1.038-.637-1.622-.828-1.683-.554-3.417-.577-5.126-.275-1.415.25-2.5 1.041-3.077 2.466-.336.829-.596 1.673-.762 2.538-.193 1.005-.148 2.002.375 2.938.891 1.594 2.265 2.745 3.802 3.561 2.018 1.071 4.256 1.601 6.571 1.669zm-3.194 12.376c.51.045 1.006-.063 1.506-.111 1.471-.14 2.855-.456 4.037-1.457 1.267-1.073 2.176-2.257 1.869-4.034-.07-.409-.122-.822-.206-1.229-.229-1.117-.85-1.953-1.842-2.518-.377-.215-.744-.448-1.114-.676-1.21-.743-2.581-1.035-3.94-1.276-1.072-.19-2.179-.099-3.278-.067-1.222.034-2.286.311-3.262 1.022-.752.548-1.598 1.08-1.832 2.006-.267 1.062-.519 2.158-.268 3.291.471 2.126 1.594 3.697 3.716 4.387 1.494.484 3.063.543 4.614.662zm16.237-27.726c0-.228-.007-.454.001-.681.1-2.758-.489-5.257-2.529-7.294-.806-.805-1.594-1.406-2.802-1.494-1.377-.1-2.661-.146-3.879.692-.987.678-1.827 1.397-2.18 2.598-.099.336-.153.673-.215 1.009-.2 1.083-.186 2.146.146 3.227.461 1.501 1.179 2.846 2.071 4.128 1.282 1.842 2.978 3.15 5.083 3.832 2.024.654 3.399-.049 4.017-2.221.351-1.245.277-2.524.287-3.796zm12.182 7.057h.629c.776-.004 1.479-.482 1.695-1.233.542-1.89.313-3.765-.45-5.517-.947-2.174-2.103-4.24-3.881-5.899-1.306-1.221-2.763-2.021-4.581-1.918-1.077.061-2.461.824-2.663 2.249-.167 1.177-.305 2.354-.313 3.541-.013 1.717.502 3.348.999 4.958.386 1.252 1.233 2.226 2.531 2.683 1.951.687 3.946 1.163 6.034 1.136zM197.37 1.4796c-1.27-.021-1.541.207-1.408 1.062.114.728.376 1.421.768 2.04.534.843 1.138.999 1.996.557.513-.265.987-.604 1.305-1.102.422-.661.387-1.156-.135-1.682-.767-.772-1.775-.781-2.526-.875zm-14.597 14.075c-1.053-.055-1.343.307-1.162 1.166.216 1.024.953 1.647 1.696 2.301.495.434.958.442 1.48.207.535-.241.899-.687 1.052-1.237.133-.477.049-.909-.375-1.31-.835-.79-1.779-1.191-2.691-1.127zm1.331 21.188c.001-1.298-.717-2.109-1.688-2.007-.711.076-1.405.259-2.04.608-.541.298-.593.592-.151 1.009.733.695 1.622 1.146 2.552 1.502.695.266 1.095.03 1.28-.693.046-.182.043-.379.047-.419zm27.411-32.595c.058.646.176 1.279.448 1.873.273.595.467.666 1.121.521.432-.097.828-.266 1.206-.486.485-.284.619-.707.428-1.248-.251-.713-.799-1.171-1.372-1.604-.359-.271-.776-.443-1.218-.245-.495.223-.576.704-.613 1.189zm-12.254 28.214c.956.685 1.641 1.409 2.049 2.367.038.087.132.155.211.218.19.149.279.127.313-.145.115-.928.256-1.852.396-2.837-.932.351-1.878.353-2.969.397zm-46.766-19.762c3.531 0 7.062.007 10.593-.009.395-.001.534.074.528.504-.026 1.817-.019 3.636-.004 5.454.002.34-.088.438-.439.435-2.045-.019-4.091.012-6.135-.024-.5-.009-.546.163-.545.585.013 6.572.003 13.145.021 19.717.001.481-.121.602-.599.597-2.325-.026-4.65-.023-6.975-.002-.411.003-.515-.102-.514-.514.014-6.607.003-13.215.022-19.822.001-.475-.128-.563-.572-.557-2.01.025-4.021-.003-6.03.022-.447.006-.541-.13-.535-.554.024-1.782.022-3.565.001-5.349-.004-.387.084-.495.485-.493 3.566.017 7.132.01 10.698.01z" fill="#231F20"/><path d="M180.054 16.7916c.381 1.743 1.529 2.805 2.873 3.716.217.147.462.228.722.288.691.162 1.035.64.906 1.314-.132.688-.043 1.363.091 2.027.062.309-.004.537-.137.787-.852 1.598-1.687 3.202-2.556 4.79-.244.444-.377.881-.35 1.389.031.575.002 1.153.01 1.729.003.235-.044.355-.313.439-.768.242-1.464.665-2.101 1.137-.925.687-.975 1.893-.2 2.762.435.487.971.846 1.524 1.181.312.188.621.382.923.585.299.2.166.516.145.77-.021.26-.283.133-.43.133-2.395.009-4.789-.004-7.183.016-.402.003-.526-.086-.523-.508.02-2.849.007-5.698.016-8.547 0-.324-.061-.61-.213-.898-2.675-5.056-5.33-10.122-8.026-15.166-.318-.594-.521-1.15-.466-1.817.02-.241.062-.325.323-.324 2.587.011 5.173.011 7.76-.001.276-.002.358.14.44.346 1.174 2.912 2.61 5.706 3.899 8.565.076.169.072.448.378.423.266-.022.233-.28.305-.433.737-1.564 1.458-3.135 2.183-4.703zm59.131 9.428c0-2.114.011-4.229-.01-6.343-.004-.396.098-.491.489-.487 2.062.024 4.124.015 6.185.021.974.003 1.745.599 1.977 1.54.1.405.166.815.165 1.24-.009 2.691-.008 5.382-.001 8.073.001.459-.075.902-.198 1.34-.24.851-1.013 1.427-1.901 1.429-2.062.006-4.123-.003-6.184.029-.451.007-.537-.127-.532-.551.022-2.097.01-4.194.01-6.291zm-57.902-11.999s-.006-.017-.002-.03c.543-1.591.543-1.591 2.208-1.591 2.13 0 4.26.008 6.39-.007.333-.003.41.078.443.42.079.813-.191 1.498-.603 2.162-.099.159-.205.275-.389.313-.712.144-1.339.481-1.939.871-.146.095-.204.15-.347-.039-.497-.659-1.086-1.257-1.828-1.614-1.231-.596-2.548-.716-3.933-.485zm22.925 10.161c-.563-1.31-1.259-2.445-2.304-3.332-.209-.177-.212-.368-.138-.629 1.407.896 2.853 1.693 4.16 2.715-.593.338-1.258.623-1.718 1.246zm7.136-15.218c-.267-.304-.481-.549-.725-.825.303-.128.603-.031.946-.069-.076.308-.143.579-.221.894z" fill="#231F20"/><path d="M303.71 24.0596c2.115 0 4.23.01 6.344-.009.376-.004.511.064.505.477-.033 2.568.042 5.138-.131 7.704-.148 2.201-.788 4.189-2.55 5.652-1.519 1.261-3.295 1.981-5.243 2.159-3.154.288-6.323.181-9.48.079-2.445-.078-4.681-.914-6.479-2.674-1.21-1.185-1.828-2.669-1.98-4.319-.377-4.096-.252-8.2-.129-12.304.04-1.313.202-2.599.737-3.809 1.001-2.263 2.876-3.472 5.132-4.207 1.409-.46 2.865-.552 4.336-.54 2.254.019 4.511-.045 6.763.03 2.503.084 4.798.82 6.677 2.57 1.542 1.437 2.077 3.306 2.212 5.327.073 1.099.053 1.1-1.05 1.1-2.43 0-4.858-.006-7.288.009-.317.001-.445-.084-.525-.4-.228-.902-1.005-1.489-1.905-1.488-1.275.001-2.551.037-3.825.002-1.919-.054-2.496.932-2.528 2.355-.067 2.97-.048 5.942-.002 8.912.014.926.291 1.807 1.315 2.186.232.086.462.158.708.158 1.45.003 2.899.005 4.349.001.877-.003 1.656-.605 1.888-1.455.152-.56.207-1.13.203-1.711-.001-.308-.072-.429-.408-.429-1.327 0-2.654-.045-3.981-.042-.399.001-.529-.103-.521-.524.029-1.45.023-2.901.003-4.352-.005-.36.083-.471.458-.468 2.131.019 4.263.01 6.395.01zm-46.075 2.117c-.006-1.975-.018-3.949.108-5.921.244-3.807 2.029-6.296 6.157-7.538 1.314-.396 2.671-.458 4.037-.447 2.254.017 4.51-.046 6.762.029 2.522.084 4.831.827 6.716 2.601 1.28 1.204 1.932 2.737 2.092 4.447.369 3.939.25 7.89.147 11.837-.024.926-.088 1.847-.283 2.755-.6 2.79-2.417 4.476-4.977 5.478-1.583.619-3.241.776-4.929.761-2.271-.022-4.545.045-6.814-.032-2.564-.087-4.903-.856-6.793-2.691-1.231-1.193-1.809-2.701-2.009-4.367-.277-2.298-.208-4.607-.214-6.912zm8.805.035c0 1.328.007 2.655-.004 3.982-.004.441.064.869.17 1.292.243.97 1.022 1.548 2.021 1.54 1.361-.01 2.723-.011 4.084 0 1.01.009 1.786-.558 2.034-1.522.118-.458.188-.919.187-1.395-.008-2.585-.008-5.17 0-7.754.002-.495-.069-.973-.193-1.446-.232-.888-.998-1.491-1.904-1.492-1.257-.002-2.515.048-3.77-.001-1.607-.063-2.414.604-2.597 2.188-.022.19-.027.383-.027.575-.002 1.344-.001 2.688-.001 4.033z" fill="#FFF"/><path d="M45.384 29.6486c.29-1.005.576-1.989.857-2.975.574-2.01 1.142-4.021 1.727-6.028.04-.138-.017-.408.244-.388.207.017.159.251.197.385.864 2.989 1.717 5.98 2.582 9.006h-5.607z" fill="#FCFCFC"/><path d="M202.227 41.4156c.054-.748.095-1.498.168-2.244.048-.492 0-.976-.04-1.463-.086-1.075.179-2.117.314-3.17.241-1.88.527-3.753.94-5.604.099-.439.232-.872.348-1.308.626-2.364 2.201-3.349 4.558-3.6 1.636-.174 3.188.177 4.75.579 3.606.927 7 2.396 10.177 4.287 2.2 1.311 3.927 3.169 4.738 5.71.502 1.572.182 3.079-.293 4.598-.474 1.512-1.349 2.685-2.777 3.353-1.145.536-2.355.918-3.641.984-1.516.078-3.029.208-4.55.223-.525.005-1.048.17-1.539.397-.146.067-.184.167-.248.296-.378.765-.652 1.571-1.055 2.33-.896 1.693-2.353 2.568-4.115 3.036-1.177.312-2.32.132-3.395-.431-1.287-.673-2.384-1.563-3.199-2.791-.475-.715-.726-1.486-.813-2.333-.098-.949-.353-1.881-.328-2.849zm-5.458-11.405c-2.314-.067-4.552-.598-6.571-1.67-1.537-.815-2.911-1.967-3.802-3.561-.523-.937-.568-1.934-.375-2.938.166-.865.426-1.709.762-2.538.578-1.425 1.663-2.216 3.077-2.466 1.708-.302 3.443-.278 5.126.275.583.191 1.146.444 1.622.828.754.607 1.681.952 2.355 1.689 1.683 1.839 2.755 3.922 2.782 6.461.012 1.18-.442 2.165-1.3 2.977-.61.578-1.427.592-2.165.817-.488.148-1.003.107-1.511.126zm-3.194 12.376c-1.551-.119-3.121-.178-4.613-.663-2.122-.689-3.245-2.261-3.716-4.387-.251-1.133.001-2.229.268-3.291.233-.926 1.08-1.458 1.832-2.006.977-.712 2.041-.988 3.262-1.022 1.099-.031 2.206-.123 3.278.067 1.359.241 2.73.533 3.94 1.276.37.228.736.461 1.114.676.992.564 1.612 1.4 1.842 2.518.083.407.135.82.206 1.229.307 1.777-.603 2.961-1.869 4.034-1.182 1.001-2.566 1.317-4.037 1.457-.501.048-.997.157-1.507.112zm16.237-27.726c-.011 1.271.064 2.551-.29 3.796-.618 2.172-1.993 2.875-4.017 2.221-2.105-.682-3.8-1.99-5.083-3.832-.892-1.282-1.61-2.627-2.071-4.128-.332-1.08-.346-2.144-.146-3.227.062-.336.117-.673.215-1.009.354-1.2 1.193-1.92 2.18-2.598 1.219-.839 2.502-.792 3.879-.692 1.208.088 1.997.689 2.802 1.494 2.041 2.037 2.629 4.536 2.529 7.294-.004.227.002.454.002.681zm12.182 7.056c-2.088.028-4.083-.448-6.035-1.136-1.297-.457-2.145-1.431-2.531-2.683-.496-1.61-1.011-3.241-.999-4.958.009-1.187.146-2.364.313-3.541.202-1.425 1.586-2.188 2.663-2.249 1.817-.103 3.274.697 4.581 1.918 1.778 1.659 2.934 3.726 3.881 5.899.763 1.752.992 3.627.45 5.517-.216.751-.918 1.229-1.695 1.233-.209.001-.418.001-.628 0zM197.37 1.4796c.751.095 1.759.104 2.525.875.522.525.557 1.021.135 1.682-.318.497-.792.837-1.305 1.102-.857.442-1.461.286-1.996-.557a5.3667 5.3667 0 01-.768-2.04c-.132-.855.14-1.083 1.409-1.062zm-14.597 14.075c.911-.063 1.856.337 2.692 1.127.425.4.509.833.375 1.31-.153.551-.517.996-1.052 1.237-.522.235-.986.227-1.48-.207-.743-.653-1.48-1.276-1.696-2.301-.181-.86.108-1.221 1.161-1.166zm1.331 21.188c-.004.04-.001.236-.047.419-.186.724-.585.959-1.28.693-.931-.356-1.819-.807-2.552-1.502-.441-.417-.39-.711.151-1.009.635-.35 1.329-.532 2.04-.608.971-.102 1.689.709 1.688 2.007zm27.411-32.595c.038-.484.118-.966.614-1.189.442-.198.859-.026 1.218.245.572.433 1.12.891 1.372 1.604.191.541.057.964-.428 1.248-.378.221-.774.39-1.206.486-.654.146-.848.074-1.121-.521-.274-.594-.391-1.227-.449-1.873z" fill="#FD0000"/><path d="M199.261 32.3616c1.091-.044 2.037-.046 2.969-.396-.14.985-.28 1.909-.396 2.837-.034.271-.122.294-.313.145-.08-.063-.174-.131-.211-.218-.409-.958-1.094-1.683-2.049-2.368z" fill="#FCFCFC"/><path d="M266.44 26.2116c0-1.345-.001-2.689.001-4.033 0-.192.005-.385.027-.575.184-1.583.99-2.251 2.597-2.188 1.254.049 2.513-.001 3.77.001.906.001 1.672.604 1.904 1.492.124.474.195.951.193 1.446-.008 2.584-.008 5.169 0 7.754.002.476-.068.937-.187 1.395-.249.965-1.024 1.531-2.034 1.522-1.361-.011-2.723-.01-4.084 0-.999.008-1.778-.57-2.021-1.54-.106-.423-.174-.851-.17-1.292.012-1.327.004-2.654.004-3.982z" fill="#231F20"/></g></svg>